#!OML:ASF X:\für Bonn\!DataBase\2005_08_11_Bastian_Final\c3d\Bastian.ASF
:FULLY-SPECIFIED
:DEGREES
49
root 0.960662 16.6604 0.6932 136.519 -26.7096 -169.814
lowerback 49.087 -7.29875 3.70121
upperback 16.2743 -15.5912 4.01891
thorax -0.941568 -11.4288 8.17585
lowerneck -4.59088 -9.62977 -10.2836
upperneck -6.42588 -11.6873 18.2058
head 0.668708 -5.53621 6.80576
rclavicle 1.83876e-014 -5.88403e-014
rhumerus -61.4587 35.5083 -116.036
rradius 40.7697
rwrist -39.1291
rhand -35.9314 2.50382
rfingers 7.12502
rthumb -9.04365 -27.2823
lclavicle 1.83876e-014 -5.88403e-014
lhumerus 54.3572 -28.0244 73.7007
lradius 111.636
lwrist -26.1788
lhand -54.4437 -20.7495
lfingers 7.12502
lthumb -26.848 7.36433
rfemur -74.146 -5.26538 25.0429
rtibia 135.012
rfoot 12.2823 0.592592
rtoes -4.78872
lfemur 24.3776 -3.15591 -12.5532
ltibia 36.2366
lfoot -10.9865 -18.0627
ltoes 1.6067
50
root 0.949755 16.6503 0.6801 135.845 -27.0755 -169.533
lowerback 49.8864 -7.39846 3.77694
upperback 16.3588 -15.8539 4.1368
thorax -0.879057 -11.6673 8.40148
lowerneck -4.73898 -9.66592 -10.0851
upperneck -6.62498 -11.6855 18.3544
head 0.635587 -5.52673 6.81821
rclavicle 5.61567e-014 3.65764e-014
rhumerus -61.8508 35.4739 -116.452
rradius 40.8342
rwrist -39.6627
rhand -35.7813 2.34912
rfingers 7.12502
rthumb -8.89872 -27.4432
lclavicle 5.61567e-014 3.65764e-014
lhumerus 54.4494 -28.0825 73.7679
lradius 112.235
lwrist -26.2817
lhand -54.2534 -20.7735
lfingers 7.12502
lthumb -26.6658 7.36821
rfemur -76.5255 -5.75596 25.5013
rtibia 135.934
rfoot 12.1904 1.08641
rtoes -5.3135
lfemur 24.8608 -3.38901 -12.4748
ltibia 36.2988
lfoot -10.9367 -18.3787
ltoes 1.94698
51
root 0.939191 16.645 0.666404 135.181 -27.4046 -169.275
lowerback 50.6459 -7.49384 3.88636
upperback 16.4339 -16.0773 4.21827
thorax -0.832666 -11.873 8.55973
lowerneck -4.82545 -9.72495 -9.87957
upperneck -6.81848 -11.7213 18.5162
head 0.59973 -5.5399 6.83353
rclavicle -6.31141e-014 -3.97569e-016
rhumerus -62.3668 35.4538 -116.984
rradius 40.9649
rwrist -40.1864
rhand -35.6332 2.07509
rfingers 7.12502
rthumb -8.75582 -27.7233
lclavicle -6.31141e-014 -3.97569e-016
lhumerus 54.4063 -28.2102 73.9681
lradius 112.729
lwrist -26.2935
lhand -54.0649 -20.9753
lfingers 7.12502
lthumb -26.4855 7.19373
rfemur -78.7476 -6.07461 25.9737
rtibia 136.716
rfoot 12.04 1.45266
rtoes -5.72381
lfemur 25.3816 -3.67276 -12.4654
ltibia 36.3312
lfoot -10.9224 -18.5678
ltoes 2.14057
52
root 0.928349 16.6375 0.652304 134.559 -27.6903 -169.011
lowerback 51.3302 -7.58688 4.01816
upperback 16.502 -16.276 4.30712
thorax -0.782779 -12.0603 8.70139
lowerneck -4.89133 -9.78528 -9.69272
upperneck -7.01754 -11.7591 18.6785
head 0.560333 -5.55544 6.85299
rclavicle 3.99557e-014 5.96354e-015
rhumerus -62.9156 35.604 -117.629
rradius 41.0451
rwrist -40.793
rhand -35.5379 1.80655
rfingers 7.12502
rthumb -8.66389 -27.9957
lclavicle 3.99557e-014 5.96354e-015
lhumerus 54.2836 -28.2824 74.2827
lradius 113.159
lwrist -26.1926
lhand -53.8374 -21.3444
lfingers 7.12502
lthumb -26.2676 6.85724
rfemur -80.8534 -6.29682 26.5022
rtibia 137.359
rfoot 11.8061 1.78963
rtoes -5.75466
lfemur 25.857 -4.01858 -12.5078
ltibia 36.4004
lfoot -10.9433 -18.6418
ltoes 2.39963
53
root 0.916588 16.6183 0.635781 133.974 -27.9806 -168.813
lowerback 51.9791 -7.65411 4.11168
upperback 16.5532 -16.4418 4.3873
thorax -0.745975 -12.2242 8.83933
lowerneck -4.91136 -9.85502 -9.56061
upperneck -7.2225 -11.8107 18.8695
head 0.519344 -5.58008 6.89135
rclavicle -8.22969e-014 2.46493e-014
rhumerus -63.477 35.8491 -118.329
rradius 41.0714
rwrist -41.41
rhand -35.4323 1.55766
rfingers 7.12502
rthumb -8.56199 -28.2487
lclavicle -8.22969e-014 2.46493e-014
lhumerus 54.1672 -28.3332 74.6724
lradius 113.517
lwrist -25.9817
lhand -53.6326 -21.8151
lfingers 7.12502
lthumb -26.0716 6.41564
rfemur -82.7652 -6.49684 26.987
rtibia 137.895
rfoot 11.3728 2.03909
rtoes -5.29683
lfemur 26.3005 -4.37456 -12.655
ltibia 36.5533
lfoot -11.0188 -18.649
ltoes 2.60944
54
root 0.903166 16.5919 0.619412 133.403 -28.186 -168.599
lowerback 52.6119 -7.7277 4.26502
upperback 16.5669 -16.5637 4.47394
thorax -0.75539 -12.354 8.95041
lowerneck -4.8866 -9.93432 -9.46157
upperneck -7.41589 -11.8813 19.0548
head 0.478598 -5.61721 6.93372
rclavicle 1.19271e-014 -3.18055e-015
rhumerus -64.0473 36.0916 -119.038
rradius 41.068
rwrist -41.9351
rhand -35.3672 1.32237
rfingers 7.12502
rthumb -8.49917 -28.4866
lclavicle 1.19271e-014 -3.18055e-015
lhumerus 54.0187 -28.3523 75.1089
lradius 113.838
lwrist -25.7176
lhand -53.508 -22.3486
lfingers 7.12502
lthumb -25.9523 5.89961
rfemur -84.4701 -6.59726 27.5405
rtibia 138.32
rfoot 10.769 2.09268
rtoes -4.17693
lfemur 26.6922 -4.73503 -12.7842
ltibia 36.8175
lfoot -11.2166 -18.5973
ltoes 2.76618
55
root 0.890191 16.566 0.602653 132.901 -28.3474 -168.44
lowerback 53.1712 -7.75211 4.37227
upperback 16.5809 -16.6376 4.56683
thorax -0.754778 -12.4576 9.06465
lowerneck -4.80436 -10.0054 -9.38823
upperneck -7.65086 -11.9372 19.2387
head 0.416011 -5.65117 6.98497
rclavicle 6.17226e-014 -5.02925e-014
rhumerus -64.6991 36.4996 -119.895
rradius 41.0551
rwrist -42.555
rhand -35.4045 1.22674
rfingers 7.12502
rthumb -8.53519 -28.5808
lclavicle 6.17226e-014 -5.02925e-014
lhumerus 53.8484 -28.3698 75.6075
lradius 114.174
lwrist -25.4386
lhand -53.4291 -23.0046
lfingers 7.12502
lthumb -25.8767 5.25469
rfemur -86.0917 -6.5953 28.1142
rtibia 138.672
rfoot 10.1011 1.92261
rtoes -2.69874
lfemur 27.0424 -5.03996 -12.9326
ltibia 37.099
lfoot -11.4236 -18.5281
ltoes 2.91117
56
root 0.876254 16.5374 0.587453 132.44 -28.4706 -168.32
lowerback 53.6857 -7.75465 4.4777
upperback 16.5924 -16.6796 4.66552
thorax -0.752942 -12.5429 9.17145
lowerneck -4.71934 -10.0929 -9.3905
upperneck -7.90103 -12.0092 19.4793
head 0.360657 -5.69203 7.06521
rclavicle 3.926e-014 -7.35503e-015
rhumerus -65.2947 36.9117 -120.698
rradius 41.0397
rwrist -43.0552
rhand -35.4926 1.14329
rfingers 7.12502
rthumb -8.62015 -28.6607
lclavicle 3.926e-014 -7.35503e-015
lhumerus 53.7554 -28.3605 76.0444
lradius 114.548
lwrist -25.0428
lhand -53.3813 -23.7514
lfingers 7.12502
lthumb -25.8309 4.51458
rfemur -87.6241 -6.57192 28.7202
rtibia 138.993
rfoot 9.40868 1.64384
rtoes -1.58197
lfemur 27.3983 -5.3493 -13.1365
ltibia 37.3555
lfoot -11.587 -18.4033
ltoes 3.36164
